<?xml version="1.0" encoding="UTF-8"?>
<svg id="Layer_1" data-name="Layer 1" xmlns="http://www.w3.org/2000/svg" viewBox="0 0 1867.93 1080">
  <defs>
    <style>
      .cls-1 {
        fill: #08477f;
      }

      .cls-2 {
        fill: #05366b;
      }

      .cls-3 {
        fill: #032859;
      }
    </style>
  </defs>
  <g id="logo">
    <path class="cls-1" d="M527.36,275.96c-36.88-105.98-137.6-182.08-256.15-182.08C121.43,93.88,0,215.31,0,365.09s121.43,271.21,271.21,271.21c.09,0,.18,0,.26,0,4.28-165,109.29-304.86,255.88-360.34Z"/>
    <path class="cls-2" d="M871.38,516.72c0-61.87,11.84-120.94,33.16-175.25-58.74-34.42-127.07-54.24-200.06-54.24-49.39,0-96.63,9.11-140.24,25.61,9.72,27.93,15.06,57.9,15.06,89.13,0,149.7-121.28,271.06-270.95,271.2-.09,3.48-.26,6.94-.26,10.44,0,218.92,177.47,396.39,396.39,396.39,144.86,0,271.52-77.75,340.67-193.75-106.15-88.02-173.77-220.87-173.77-369.53Z"/>
    <path class="cls-1" d="M560.86,383.53c0-31.24-5.35-61.21-15.06-89.13-146.59,55.48-251.61,195.34-255.88,360.34,149.66-.14,270.95-121.51,270.95-271.2Z"/>
    <path class="cls-3" d="M1388.09,0c-203.13,0-376.66,126.29-446.67,304.59,117.42,68.81,196.32,196.23,196.32,342.15,0,74.05-20.36,143.33-55.71,202.63,83.07,68.88,189.72,110.3,306.06,110.3,265.01,0,479.84-214.83,479.84-479.84S1653.1,0,1388.09,0Z"/>
    <path class="cls-3" d="M922.98,323.03c-21.33,54.31-33.16,113.38-33.16,175.25,0,148.66,67.62,281.52,173.77,369.53,35.35-59.3,55.71-128.58,55.71-202.63,0-145.92-78.91-273.34-196.32-342.15Z"/>
  </g>
</svg>